<svg
	viewBox="0 0 115 115"
	fill="none"
	xmlns="http://www.w3.org/2000/svg"
	>
	<path
		d="M43.125 82.6571C43.125 80.6707 44.7323 79.0634 46.7188 79.0634C48.7052 79.0634 50.3125 80.6707 50.3125 82.6571C50.3125 84.6436 48.7052 86.2509 46.7188 86.2509C44.7323 86.2509 43.125 84.6436 43.125 82.6571ZM78.4623 110.993C77.5042 111.267 76.5145 111.463 75.4688 111.463C69.513 111.463 64.6875 106.638 64.6875 100.682V87.6125C64.6875 83.0992 67.5845 79.2669 71.6048 77.8559C79.3239 75.2626 86.25 68.7489 86.25 61.0946V53.9062C86.25 50.5003 84.8601 47.3286 82.6562 44.6148V36.499C82.6562 32.5306 79.438 31.1715 75.4688 33.4677L69.9622 36.6518C68.1988 36.1947 66.4177 35.9375 64.6875 35.9375H50.3125C48.5832 35.9375 46.8012 36.1947 45.0378 36.6518L39.5312 33.4677C35.5629 31.1715 32.3438 32.5306 32.3438 36.499V44.6148C30.1399 47.3286 28.75 50.5003 28.75 53.9062V61.0946C28.75 66.3238 32.0041 71.0197 36.5165 74.3044L36.5121 74.3113C37.4491 74.9535 38.072 76.0381 38.072 77.2663C38.072 79.2491 36.4602 80.86 34.4782 80.86C33.463 80.86 32.5524 80.4353 31.8997 79.7581C25.831 75.1608 21.5625 68.5137 21.5625 61.0946V53.9062C21.5625 49.7458 22.9129 45.8255 25.1562 42.3669V31.6681C25.1562 23.7313 31.5902 21.0131 39.5312 25.6046L45.6992 29.1729C47.2374 28.9115 48.7789 28.75 50.3125 28.75H64.6875C66.2211 28.75 67.762 28.9115 69.3008 29.1729L75.4688 25.6046C83.4107 21.0133 89.8438 23.7313 89.8438 31.6681V42.3669C92.0863 45.8255 93.4375 49.7458 93.4375 53.9062V61.0946C93.4375 71.7881 84.6216 80.8919 74.2264 84.5347C74.2141 84.5452 74.202 84.5733 74.1842 84.5769C72.833 85.0962 71.875 86.4018 71.875 87.9355V100.682C71.875 102.668 73.4823 104.276 75.4688 104.276C75.7688 104.276 76.0442 104.192 76.3216 104.121C94.7782 96.6741 107.812 78.6281 107.812 57.5C107.812 29.7125 85.2884 7.1875 57.5 7.1875C29.7125 7.1875 7.1875 29.7125 7.1875 57.5C7.1875 79.3792 21.1703 97.9445 40.6815 104.869C40.7814 104.88 40.8728 104.922 40.9771 104.922C42.1623 104.922 43.1248 103.956 43.1248 102.774C43.1248 101.588 42.1623 100.626 40.9771 100.626C40.9517 100.626 40.9517 100.605 40.9342 100.594C28.9939 100.275 28.9807 86.2511 25.1562 86.2511C23.1698 86.2511 21.5625 84.6438 21.5625 82.6574C21.5625 80.6709 23.1698 79.0636 25.1562 79.0636H26.9504C34.1424 79.0636 33.1148 93.4386 43.125 93.4386C47.0934 93.4386 50.3125 96.6568 50.3125 100.626V106.915C50.3125 110.386 47.4988 113.204 44.0225 113.204C43.6434 113.204 43.2865 113.127 42.9249 113.057C18.239 106.603 0 84.2119 0 57.5C0 25.7441 25.7441 0 57.5 0C89.2559 0 115 25.7441 115 57.5C115 81.8499 99.8407 102.612 78.4623 110.993V110.993Z"
		fill="#ffffff"
	/>
</svg>